<svg width="600" height="500" xmlns="http://www.w3.org/2000/svg">
  <defs>
    <radialGradient id="dotGradient">
      <stop offset="0%" stop-color="#ffcc00" stop-opacity="0.4" />
      <stop offset="100%" stop-color="#ffcc00" stop-opacity="0.12" />
    </radialGradient>
  </defs>
  <rect width="600" height="500" fill="#000000"/>
  <circle cx="0" cy="0" r="1.5" fill="url(#dotGradient)" opacity="1"/>
  <circle cx="30" cy="0" r="1.5" fill="url(#dotGradient)" opacity="1"/>
  <circle cx="60" cy="0" r="1.5" fill="url(#dotGradient)" opacity="1"/>
  <circle cx="90" cy="0" r="1.5" fill="url(#dotGradient)" opacity="1"/>
  <circle cx="120" cy="0" r="1.5" fill="url(#dotGradient)" opacity="1"/>
  <circle cx="150" cy="0" r="1.5" fill="url(#dotGradient)" opacity="1"/>
  <circle cx="180" cy="0" r="1.5" fill="url(#dotGradient)" opacity="1"/>
  <circle cx="210" cy="0" r="1.5" fill="url(#dotGradient)" opacity="1"/>
  <circle cx="240" cy="0" r="1.5" fill="url(#dotGradient)" opacity="1"/>
  <circle cx="270" cy="0" r="1.5" fill="url(#dotGradient)" opacity="1"/>
  <circle cx="300" cy="0" r="1.5" fill="url(#dotGradient)" opacity="1"/>
  <circle cx="330" cy="0" r="1.5" fill="url(#dotGradient)" opacity="1"/>
  <circle cx="360" cy="0" r="1.5" fill="url(#dotGradient)" opacity="1"/>
  <circle cx="390" cy="0" r="1.5" fill="url(#dotGradient)" opacity="1"/>
  <circle cx="420" cy="0" r="1.5" fill="url(#dotGradient)" opacity="1"/>
  <circle cx="450" cy="0" r="1.5" fill="url(#dotGradient)" opacity="1"/>
  <circle cx="480" cy="0" r="1.5" fill="url(#dotGradient)" opacity="1"/>
  <circle cx="510" cy="0" r="1.5" fill="url(#dotGradient)" opacity="1"/>
  <circle cx="540" cy="0" r="1.5" fill="url(#dotGradient)" opacity="1"/>
  <circle cx="570" cy="0" r="1.5" fill="url(#dotGradient)" opacity="1"/>
  <circle cx="0" cy="30" r="1.5" fill="url(#dotGradient)" opacity="1"/>
  <circle cx="30" cy="30" r="1.5" fill="url(#dotGradient)" opacity="1"/>
  <circle cx="60" cy="30" r="1.5" fill="url(#dotGradient)" opacity="1"/>
  <circle cx="90" cy="30" r="1.5" fill="url(#dotGradient)" opacity="1"/>
  <circle cx="120" cy="30" r="1.5" fill="url(#dotGradient)" opacity="1"/>
  <circle cx="150" cy="30" r="1.5" fill="url(#dotGradient)" opacity="1"/>
  <circle cx="180" cy="30" r="1.5" fill="url(#dotGradient)" opacity="1"/>
  <circle cx="210" cy="30" r="1.5" fill="url(#dotGradient)" opacity="1"/>
  <circle cx="240" cy="30" r="1.5" fill="url(#dotGradient)" opacity="1"/>
  <circle cx="270" cy="30" r="1.5" fill="url(#dotGradient)" opacity="1"/>
  <circle cx="300" cy="30" r="1.5" fill="url(#dotGradient)" opacity="1"/>
  <circle cx="330" cy="30" r="1.5" fill="url(#dotGradient)" opacity="1"/>
  <circle cx="360" cy="30" r="1.5" fill="url(#dotGradient)" opacity="1"/>
  <circle cx="390" cy="30" r="1.5" fill="url(#dotGradient)" opacity="1"/>
  <circle cx="420" cy="30" r="1.5" fill="url(#dotGradient)" opacity="1"/>
  <circle cx="450" cy="30" r="1.5" fill="url(#dotGradient)" opacity="1"/>
  <circle cx="480" cy="30" r="1.5" fill="url(#dotGradient)" opacity="1"/>
  <circle cx="510" cy="30" r="1.5" fill="url(#dotGradient)" opacity="1"/>
  <circle cx="540" cy="30" r="1.5" fill="url(#dotGradient)" opacity="1"/>
  <circle cx="570" cy="30" r="1.5" fill="url(#dotGradient)" opacity="1"/>
  <circle cx="0" cy="60" r="1.5" fill="url(#dotGradient)" opacity="1"/>
  <circle cx="30" cy="60" r="1.5" fill="url(#dotGradient)" opacity="1"/>
  <circle cx="60" cy="60" r="1.5" fill="url(#dotGradient)" opacity="1"/>
  <circle cx="90" cy="60" r="1.5" fill="url(#dotGradient)" opacity="1"/>
  <circle cx="120" cy="60" r="1.5" fill="url(#dotGradient)" opacity="1"/>
  <circle cx="150" cy="60" r="1.5" fill="url(#dotGradient)" opacity="1"/>
  <circle cx="180" cy="60" r="1.5" fill="url(#dotGradient)" opacity="1"/>
  <circle cx="210" cy="60" r="1.5" fill="url(#dotGradient)" opacity="1"/>
  <circle cx="240" cy="60" r="1.5" fill="url(#dotGradient)" opacity="1"/>
  <circle cx="270" cy="60" r="1.5" fill="url(#dotGradient)" opacity="1"/>
  <circle cx="300" cy="60" r="1.5" fill="url(#dotGradient)" opacity="1"/>
  <circle cx="330" cy="60" r="1.5" fill="url(#dotGradient)" opacity="1"/>
  <circle cx="360" cy="60" r="1.5" fill="url(#dotGradient)" opacity="1"/>
  <circle cx="390" cy="60" r="1.5" fill="url(#dotGradient)" opacity="1"/>
  <circle cx="420" cy="60" r="1.5" fill="url(#dotGradient)" opacity="1"/>
  <circle cx="450" cy="60" r="1.5" fill="url(#dotGradient)" opacity="1"/>
  <circle cx="480" cy="60" r="1.5" fill="url(#dotGradient)" opacity="1"/>
  <circle cx="510" cy="60" r="1.5" fill="url(#dotGradient)" opacity="1"/>
  <circle cx="540" cy="60" r="1.5" fill="url(#dotGradient)" opacity="1"/>
  <circle cx="570" cy="60" r="1.5" fill="url(#dotGradient)" opacity="1"/>
  <circle cx="0" cy="90" r="1.5" fill="url(#dotGradient)" opacity="1"/>
  <circle cx="30" cy="90" r="1.5" fill="url(#dotGradient)" opacity="1"/>
  <circle cx="60" cy="90" r="1.5" fill="url(#dotGradient)" opacity="1"/>
  <circle cx="90" cy="90" r="1.5" fill="url(#dotGradient)" opacity="1"/>
  <circle cx="120" cy="90" r="1.5" fill="url(#dotGradient)" opacity="1"/>
  <circle cx="150" cy="90" r="1.5" fill="url(#dotGradient)" opacity="1"/>
  <circle cx="180" cy="90" r="1.5" fill="url(#dotGradient)" opacity="1"/>
  <circle cx="210" cy="90" r="1.5" fill="url(#dotGradient)" opacity="1"/>
  <circle cx="240" cy="90" r="1.5" fill="url(#dotGradient)" opacity="1"/>
  <circle cx="270" cy="90" r="1.5" fill="url(#dotGradient)" opacity="1"/>
  <circle cx="300" cy="90" r="1.5" fill="url(#dotGradient)" opacity="1"/>
  <circle cx="330" cy="90" r="1.5" fill="url(#dotGradient)" opacity="1"/>
  <circle cx="360" cy="90" r="1.5" fill="url(#dotGradient)" opacity="1"/>
  <circle cx="390" cy="90" r="1.5" fill="url(#dotGradient)" opacity="1"/>
  <circle cx="420" cy="90" r="1.5" fill="url(#dotGradient)" opacity="1"/>
  <circle cx="450" cy="90" r="1.5" fill="url(#dotGradient)" opacity="1"/>
  <circle cx="480" cy="90" r="1.5" fill="url(#dotGradient)" opacity="1"/>
  <circle cx="510" cy="90" r="1.5" fill="url(#dotGradient)" opacity="1"/>
  <circle cx="540" cy="90" r="1.5" fill="url(#dotGradient)" opacity="1"/>
  <circle cx="570" cy="90" r="1.5" fill="url(#dotGradient)" opacity="1"/>
  <circle cx="0" cy="120" r="1.5" fill="url(#dotGradient)" opacity="1"/>
  <circle cx="30" cy="120" r="1.5" fill="url(#dotGradient)" opacity="1"/>
  <circle cx="60" cy="120" r="1.5" fill="url(#dotGradient)" opacity="1"/>
  <circle cx="90" cy="120" r="1.5" fill="url(#dotGradient)" opacity="1"/>
  <circle cx="120" cy="120" r="1.5" fill="url(#dotGradient)" opacity="1"/>
  <circle cx="150" cy="120" r="1.5" fill="url(#dotGradient)" opacity="1"/>
  <circle cx="180" cy="120" r="1.5" fill="url(#dotGradient)" opacity="1"/>
  <circle cx="210" cy="120" r="1.5" fill="url(#dotGradient)" opacity="1"/>
  <circle cx="240" cy="120" r="1.5" fill="url(#dotGradient)" opacity="1"/>
  <circle cx="270" cy="120" r="1.5" fill="url(#dotGradient)" opacity="1"/>
  <circle cx="300" cy="120" r="1.5" fill="url(#dotGradient)" opacity="1"/>
  <circle cx="330" cy="120" r="1.5" fill="url(#dotGradient)" opacity="1"/>
  <circle cx="360" cy="120" r="1.5" fill="url(#dotGradient)" opacity="1"/>
  <circle cx="390" cy="120" r="1.5" fill="url(#dotGradient)" opacity="1"/>
  <circle cx="420" cy="120" r="1.5" fill="url(#dotGradient)" opacity="1"/>
  <circle cx="450" cy="120" r="1.5" fill="url(#dotGradient)" opacity="1"/>
  <circle cx="480" cy="120" r="1.5" fill="url(#dotGradient)" opacity="1"/>
  <circle cx="510" cy="120" r="1.5" fill="url(#dotGradient)" opacity="1"/>
  <circle cx="540" cy="120" r="1.5" fill="url(#dotGradient)" opacity="1"/>
  <circle cx="570" cy="120" r="1.5" fill="url(#dotGradient)" opacity="1"/>
  <circle cx="0" cy="150" r="1.5" fill="url(#dotGradient)" opacity="1"/>
  <circle cx="30" cy="150" r="1.5" fill="url(#dotGradient)" opacity="1"/>
  <circle cx="60" cy="150" r="1.5" fill="url(#dotGradient)" opacity="1"/>
  <circle cx="90" cy="150" r="1.5" fill="url(#dotGradient)" opacity="1"/>
  <circle cx="120" cy="150" r="1.5" fill="url(#dotGradient)" opacity="1"/>
  <circle cx="150" cy="150" r="1.5" fill="url(#dotGradient)" opacity="1"/>
  <circle cx="180" cy="150" r="1.5" fill="url(#dotGradient)" opacity="1"/>
  <circle cx="210" cy="150" r="1.5" fill="url(#dotGradient)" opacity="1"/>
  <circle cx="240" cy="150" r="1.5" fill="url(#dotGradient)" opacity="1"/>
  <circle cx="270" cy="150" r="1.5" fill="url(#dotGradient)" opacity="1"/>
  <circle cx="300" cy="150" r="1.5" fill="url(#dotGradient)" opacity="1"/>
  <circle cx="330" cy="150" r="1.5" fill="url(#dotGradient)" opacity="1"/>
  <circle cx="360" cy="150" r="1.5" fill="url(#dotGradient)" opacity="1"/>
  <circle cx="390" cy="150" r="1.5" fill="url(#dotGradient)" opacity="1"/>
  <circle cx="420" cy="150" r="1.5" fill="url(#dotGradient)" opacity="1"/>
  <circle cx="450" cy="150" r="1.5" fill="url(#dotGradient)" opacity="1"/>
  <circle cx="480" cy="150" r="1.5" fill="url(#dotGradient)" opacity="1"/>
  <circle cx="510" cy="150" r="1.5" fill="url(#dotGradient)" opacity="1"/>
  <circle cx="540" cy="150" r="1.5" fill="url(#dotGradient)" opacity="1"/>
  <circle cx="570" cy="150" r="1.5" fill="url(#dotGradient)" opacity="1"/>
  <circle cx="0" cy="180" r="1.5" fill="url(#dotGradient)" opacity="1"/>
  <circle cx="30" cy="180" r="1.5" fill="url(#dotGradient)" opacity="1"/>
  <circle cx="60" cy="180" r="1.5" fill="url(#dotGradient)" opacity="1"/>
  <circle cx="90" cy="180" r="1.5" fill="url(#dotGradient)" opacity="1"/>
  <circle cx="120" cy="180" r="1.5" fill="url(#dotGradient)" opacity="1"/>
  <circle cx="150" cy="180" r="1.5" fill="url(#dotGradient)" opacity="1"/>
  <circle cx="180" cy="180" r="1.5" fill="url(#dotGradient)" opacity="1"/>
  <circle cx="210" cy="180" r="1.5" fill="url(#dotGradient)" opacity="1"/>
  <circle cx="240" cy="180" r="1.5" fill="url(#dotGradient)" opacity="1"/>
  <circle cx="270" cy="180" r="1.5" fill="url(#dotGradient)" opacity="1"/>
  <circle cx="300" cy="180" r="1.5" fill="url(#dotGradient)" opacity="1"/>
  <circle cx="330" cy="180" r="1.5" fill="url(#dotGradient)" opacity="1"/>
  <circle cx="360" cy="180" r="1.5" fill="url(#dotGradient)" opacity="1"/>
  <circle cx="390" cy="180" r="1.5" fill="url(#dotGradient)" opacity="1"/>
  <circle cx="420" cy="180" r="1.5" fill="url(#dotGradient)" opacity="1"/>
  <circle cx="450" cy="180" r="1.5" fill="url(#dotGradient)" opacity="1"/>
  <circle cx="480" cy="180" r="1.5" fill="url(#dotGradient)" opacity="1"/>
  <circle cx="510" cy="180" r="1.5" fill="url(#dotGradient)" opacity="1"/>
  <circle cx="540" cy="180" r="1.5" fill="url(#dotGradient)" opacity="1"/>
  <circle cx="570" cy="180" r="1.5" fill="url(#dotGradient)" opacity="1"/>
  <circle cx="0" cy="210" r="1.5" fill="url(#dotGradient)" opacity="1"/>
  <circle cx="30" cy="210" r="1.5" fill="url(#dotGradient)" opacity="1"/>
  <circle cx="60" cy="210" r="1.5" fill="url(#dotGradient)" opacity="1"/>
  <circle cx="90" cy="210" r="1.5" fill="url(#dotGradient)" opacity="1"/>
  <circle cx="120" cy="210" r="1.5" fill="url(#dotGradient)" opacity="1"/>
  <circle cx="150" cy="210" r="1.5" fill="url(#dotGradient)" opacity="1"/>
  <circle cx="180" cy="210" r="1.5" fill="url(#dotGradient)" opacity="1"/>
  <circle cx="210" cy="210" r="1.5" fill="url(#dotGradient)" opacity="1"/>
  <circle cx="240" cy="210" r="1.5" fill="url(#dotGradient)" opacity="1"/>
  <circle cx="270" cy="210" r="1.5" fill="url(#dotGradient)" opacity="1"/>
  <circle cx="300" cy="210" r="1.5" fill="url(#dotGradient)" opacity="1"/>
  <circle cx="330" cy="210" r="1.5" fill="url(#dotGradient)" opacity="1"/>
  <circle cx="360" cy="210" r="1.5" fill="url(#dotGradient)" opacity="1"/>
  <circle cx="390" cy="210" r="1.5" fill="url(#dotGradient)" opacity="1"/>
  <circle cx="420" cy="210" r="1.5" fill="url(#dotGradient)" opacity="1"/>
  <circle cx="450" cy="210" r="1.5" fill="url(#dotGradient)" opacity="1"/>
  <circle cx="480" cy="210" r="1.5" fill="url(#dotGradient)" opacity="1"/>
  <circle cx="510" cy="210" r="1.5" fill="url(#dotGradient)" opacity="1"/>
  <circle cx="540" cy="210" r="1.5" fill="url(#dotGradient)" opacity="1"/>
  <circle cx="570" cy="210" r="1.5" fill="url(#dotGradient)" opacity="1"/>
  <circle cx="0" cy="240" r="1.5" fill="url(#dotGradient)" opacity="1"/>
  <circle cx="30" cy="240" r="1.5" fill="url(#dotGradient)" opacity="1"/>
  <circle cx="60" cy="240" r="1.5" fill="url(#dotGradient)" opacity="1"/>
  <circle cx="90" cy="240" r="1.5" fill="url(#dotGradient)" opacity="1"/>
  <circle cx="120" cy="240" r="1.5" fill="url(#dotGradient)" opacity="1"/>
  <circle cx="150" cy="240" r="1.5" fill="url(#dotGradient)" opacity="1"/>
  <circle cx="180" cy="240" r="1.5" fill="url(#dotGradient)" opacity="1"/>
  <circle cx="210" cy="240" r="1.5" fill="url(#dotGradient)" opacity="1"/>
  <circle cx="240" cy="240" r="1.5" fill="url(#dotGradient)" opacity="1"/>
  <circle cx="270" cy="240" r="1.5" fill="url(#dotGradient)" opacity="1"/>
  <circle cx="300" cy="240" r="1.5" fill="url(#dotGradient)" opacity="1"/>
  <circle cx="330" cy="240" r="1.5" fill="url(#dotGradient)" opacity="1"/>
  <circle cx="360" cy="240" r="1.5" fill="url(#dotGradient)" opacity="1"/>
  <circle cx="390" cy="240" r="1.5" fill="url(#dotGradient)" opacity="1"/>
  <circle cx="420" cy="240" r="1.5" fill="url(#dotGradient)" opacity="1"/>
  <circle cx="450" cy="240" r="1.5" fill="url(#dotGradient)" opacity="1"/>
  <circle cx="480" cy="240" r="1.5" fill="url(#dotGradient)" opacity="1"/>
  <circle cx="510" cy="240" r="1.5" fill="url(#dotGradient)" opacity="1"/>
  <circle cx="540" cy="240" r="1.5" fill="url(#dotGradient)" opacity="1"/>
  <circle cx="570" cy="240" r="1.5" fill="url(#dotGradient)" opacity="1"/>
  <circle cx="0" cy="270" r="1.5" fill="url(#dotGradient)" opacity="1"/>
  <circle cx="30" cy="270" r="1.5" fill="url(#dotGradient)" opacity="1"/>
  <circle cx="60" cy="270" r="1.5" fill="url(#dotGradient)" opacity="1"/>
  <circle cx="90" cy="270" r="1.5" fill="url(#dotGradient)" opacity="1"/>
  <circle cx="120" cy="270" r="1.5" fill="url(#dotGradient)" opacity="1"/>
  <circle cx="150" cy="270" r="1.5" fill="url(#dotGradient)" opacity="1"/>
  <circle cx="180" cy="270" r="1.5" fill="url(#dotGradient)" opacity="1"/>
  <circle cx="210" cy="270" r="1.5" fill="url(#dotGradient)" opacity="1"/>
  <circle cx="240" cy="270" r="1.5" fill="url(#dotGradient)" opacity="1"/>
  <circle cx="270" cy="270" r="1.5" fill="url(#dotGradient)" opacity="1"/>
  <circle cx="300" cy="270" r="1.5" fill="url(#dotGradient)" opacity="1"/>
  <circle cx="330" cy="270" r="1.5" fill="url(#dotGradient)" opacity="1"/>
  <circle cx="360" cy="270" r="1.5" fill="url(#dotGradient)" opacity="1"/>
  <circle cx="390" cy="270" r="1.5" fill="url(#dotGradient)" opacity="1"/>
  <circle cx="420" cy="270" r="1.5" fill="url(#dotGradient)" opacity="1"/>
  <circle cx="450" cy="270" r="1.5" fill="url(#dotGradient)" opacity="1"/>
  <circle cx="480" cy="270" r="1.5" fill="url(#dotGradient)" opacity="1"/>
  <circle cx="510" cy="270" r="1.5" fill="url(#dotGradient)" opacity="1"/>
  <circle cx="540" cy="270" r="1.5" fill="url(#dotGradient)" opacity="1"/>
  <circle cx="570" cy="270" r="1.5" fill="url(#dotGradient)" opacity="1"/>
  <circle cx="0" cy="300" r="1.5" fill="url(#dotGradient)" opacity="1"/>
  <circle cx="30" cy="300" r="1.5" fill="url(#dotGradient)" opacity="1"/>
  <circle cx="60" cy="300" r="1.5" fill="url(#dotGradient)" opacity="1"/>
  <circle cx="90" cy="300" r="1.5" fill="url(#dotGradient)" opacity="1"/>
  <circle cx="120" cy="300" r="1.5" fill="url(#dotGradient)" opacity="1"/>
  <circle cx="150" cy="300" r="1.5" fill="url(#dotGradient)" opacity="1"/>
  <circle cx="180" cy="300" r="1.5" fill="url(#dotGradient)" opacity="1"/>
  <circle cx="210" cy="300" r="1.5" fill="url(#dotGradient)" opacity="1"/>
  <circle cx="240" cy="300" r="1.5" fill="url(#dotGradient)" opacity="1"/>
  <circle cx="270" cy="300" r="1.5" fill="url(#dotGradient)" opacity="1"/>
  <circle cx="300" cy="300" r="1.5" fill="url(#dotGradient)" opacity="1"/>
  <circle cx="330" cy="300" r="1.5" fill="url(#dotGradient)" opacity="1"/>
  <circle cx="360" cy="300" r="1.5" fill="url(#dotGradient)" opacity="1"/>
  <circle cx="390" cy="300" r="1.5" fill="url(#dotGradient)" opacity="1"/>
  <circle cx="420" cy="300" r="1.5" fill="url(#dotGradient)" opacity="1"/>
  <circle cx="450" cy="300" r="1.5" fill="url(#dotGradient)" opacity="1"/>
  <circle cx="480" cy="300" r="1.5" fill="url(#dotGradient)" opacity="1"/>
  <circle cx="510" cy="300" r="1.5" fill="url(#dotGradient)" opacity="1"/>
  <circle cx="540" cy="300" r="1.5" fill="url(#dotGradient)" opacity="1"/>
  <circle cx="570" cy="300" r="1.5" fill="url(#dotGradient)" opacity="1"/>
  <circle cx="0" cy="330" r="1.5" fill="url(#dotGradient)" opacity="1"/>
  <circle cx="30" cy="330" r="1.5" fill="url(#dotGradient)" opacity="1"/>
  <circle cx="60" cy="330" r="1.5" fill="url(#dotGradient)" opacity="1"/>
  <circle cx="90" cy="330" r="1.5" fill="url(#dotGradient)" opacity="1"/>
  <circle cx="120" cy="330" r="1.5" fill="url(#dotGradient)" opacity="1"/>
  <circle cx="150" cy="330" r="1.5" fill="url(#dotGradient)" opacity="1"/>
  <circle cx="180" cy="330" r="1.5" fill="url(#dotGradient)" opacity="1"/>
  <circle cx="210" cy="330" r="1.5" fill="url(#dotGradient)" opacity="1"/>
  <circle cx="240" cy="330" r="1.5" fill="url(#dotGradient)" opacity="1"/>
  <circle cx="270" cy="330" r="1.5" fill="url(#dotGradient)" opacity="1"/>
  <circle cx="300" cy="330" r="1.5" fill="url(#dotGradient)" opacity="1"/>
  <circle cx="330" cy="330" r="1.5" fill="url(#dotGradient)" opacity="1"/>
  <circle cx="360" cy="330" r="1.5" fill="url(#dotGradient)" opacity="1"/>
  <circle cx="390" cy="330" r="1.5" fill="url(#dotGradient)" opacity="1"/>
  <circle cx="420" cy="330" r="1.5" fill="url(#dotGradient)" opacity="1"/>
  <circle cx="450" cy="330" r="1.5" fill="url(#dotGradient)" opacity="1"/>
  <circle cx="480" cy="330" r="1.5" fill="url(#dotGradient)" opacity="1"/>
  <circle cx="510" cy="330" r="1.5" fill="url(#dotGradient)" opacity="1"/>
  <circle cx="540" cy="330" r="1.5" fill="url(#dotGradient)" opacity="1"/>
  <circle cx="570" cy="330" r="1.5" fill="url(#dotGradient)" opacity="1"/>
  <circle cx="0" cy="360" r="1.5" fill="url(#dotGradient)" opacity="1"/>
  <circle cx="30" cy="360" r="1.5" fill="url(#dotGradient)" opacity="1"/>
  <circle cx="60" cy="360" r="1.5" fill="url(#dotGradient)" opacity="1"/>
  <circle cx="90" cy="360" r="1.5" fill="url(#dotGradient)" opacity="1"/>
  <circle cx="120" cy="360" r="1.5" fill="url(#dotGradient)" opacity="1"/>
  <circle cx="150" cy="360" r="1.5" fill="url(#dotGradient)" opacity="1"/>
  <circle cx="180" cy="360" r="1.5" fill="url(#dotGradient)" opacity="1"/>
  <circle cx="210" cy="360" r="1.5" fill="url(#dotGradient)" opacity="1"/>
  <circle cx="240" cy="360" r="1.5" fill="url(#dotGradient)" opacity="1"/>
  <circle cx="270" cy="360" r="1.5" fill="url(#dotGradient)" opacity="1"/>
  <circle cx="300" cy="360" r="1.5" fill="url(#dotGradient)" opacity="1"/>
  <circle cx="330" cy="360" r="1.5" fill="url(#dotGradient)" opacity="1"/>
  <circle cx="360" cy="360" r="1.5" fill="url(#dotGradient)" opacity="1"/>
  <circle cx="390" cy="360" r="1.5" fill="url(#dotGradient)" opacity="1"/>
  <circle cx="420" cy="360" r="1.5" fill="url(#dotGradient)" opacity="1"/>
  <circle cx="450" cy="360" r="1.5" fill="url(#dotGradient)" opacity="1"/>
  <circle cx="480" cy="360" r="1.5" fill="url(#dotGradient)" opacity="1"/>
  <circle cx="510" cy="360" r="1.5" fill="url(#dotGradient)" opacity="1"/>
  <circle cx="540" cy="360" r="1.5" fill="url(#dotGradient)" opacity="1"/>
  <circle cx="570" cy="360" r="1.5" fill="url(#dotGradient)" opacity="1"/>
  <circle cx="0" cy="390" r="1.5" fill="url(#dotGradient)" opacity="1"/>
  <circle cx="30" cy="390" r="1.5" fill="url(#dotGradient)" opacity="1"/>
  <circle cx="60" cy="390" r="1.5" fill="url(#dotGradient)" opacity="1"/>
  <circle cx="90" cy="390" r="1.5" fill="url(#dotGradient)" opacity="1"/>
  <circle cx="120" cy="390" r="1.5" fill="url(#dotGradient)" opacity="1"/>
  <circle cx="150" cy="390" r="1.5" fill="url(#dotGradient)" opacity="1"/>
  <circle cx="180" cy="390" r="1.5" fill="url(#dotGradient)" opacity="1"/>
  <circle cx="210" cy="390" r="1.5" fill="url(#dotGradient)" opacity="1"/>
  <circle cx="240" cy="390" r="1.5" fill="url(#dotGradient)" opacity="1"/>
  <circle cx="270" cy="390" r="1.5" fill="url(#dotGradient)" opacity="1"/>
  <circle cx="300" cy="390" r="1.5" fill="url(#dotGradient)" opacity="1"/>
  <circle cx="330" cy="390" r="1.5" fill="url(#dotGradient)" opacity="1"/>
  <circle cx="360" cy="390" r="1.5" fill="url(#dotGradient)" opacity="1"/>
  <circle cx="390" cy="390" r="1.5" fill="url(#dotGradient)" opacity="1"/>
  <circle cx="420" cy="390" r="1.5" fill="url(#dotGradient)" opacity="1"/>
  <circle cx="450" cy="390" r="1.5" fill="url(#dotGradient)" opacity="1"/>
  <circle cx="480" cy="390" r="1.5" fill="url(#dotGradient)" opacity="1"/>
  <circle cx="510" cy="390" r="1.5" fill="url(#dotGradient)" opacity="1"/>
  <circle cx="540" cy="390" r="1.5" fill="url(#dotGradient)" opacity="1"/>
  <circle cx="570" cy="390" r="1.5" fill="url(#dotGradient)" opacity="1"/>
  <circle cx="0" cy="420" r="1.5" fill="url(#dotGradient)" opacity="1"/>
  <circle cx="30" cy="420" r="1.5" fill="url(#dotGradient)" opacity="1"/>
  <circle cx="60" cy="420" r="1.5" fill="url(#dotGradient)" opacity="1"/>
  <circle cx="90" cy="420" r="1.5" fill="url(#dotGradient)" opacity="1"/>
  <circle cx="120" cy="420" r="1.5" fill="url(#dotGradient)" opacity="1"/>
  <circle cx="150" cy="420" r="1.5" fill="url(#dotGradient)" opacity="1"/>
  <circle cx="180" cy="420" r="1.5" fill="url(#dotGradient)" opacity="1"/>
  <circle cx="210" cy="420" r="1.5" fill="url(#dotGradient)" opacity="1"/>
  <circle cx="240" cy="420" r="1.5" fill="url(#dotGradient)" opacity="1"/>
  <circle cx="270" cy="420" r="1.5" fill="url(#dotGradient)" opacity="1"/>
  <circle cx="300" cy="420" r="1.5" fill="url(#dotGradient)" opacity="1"/>
  <circle cx="330" cy="420" r="1.5" fill="url(#dotGradient)" opacity="1"/>
  <circle cx="360" cy="420" r="1.5" fill="url(#dotGradient)" opacity="1"/>
  <circle cx="390" cy="420" r="1.5" fill="url(#dotGradient)" opacity="1"/>
  <circle cx="420" cy="420" r="1.5" fill="url(#dotGradient)" opacity="1"/>
  <circle cx="450" cy="420" r="1.5" fill="url(#dotGradient)" opacity="1"/>
  <circle cx="480" cy="420" r="1.5" fill="url(#dotGradient)" opacity="1"/>
  <circle cx="510" cy="420" r="1.5" fill="url(#dotGradient)" opacity="1"/>
  <circle cx="540" cy="420" r="1.5" fill="url(#dotGradient)" opacity="1"/>
  <circle cx="570" cy="420" r="1.5" fill="url(#dotGradient)" opacity="1"/>
  <circle cx="0" cy="450" r="1.5" fill="url(#dotGradient)" opacity="1"/>
  <circle cx="30" cy="450" r="1.5" fill="url(#dotGradient)" opacity="1"/>
  <circle cx="60" cy="450" r="1.5" fill="url(#dotGradient)" opacity="1"/>
  <circle cx="90" cy="450" r="1.5" fill="url(#dotGradient)" opacity="1"/>
  <circle cx="120" cy="450" r="1.5" fill="url(#dotGradient)" opacity="1"/>
  <circle cx="150" cy="450" r="1.5" fill="url(#dotGradient)" opacity="1"/>
  <circle cx="180" cy="450" r="1.5" fill="url(#dotGradient)" opacity="1"/>
  <circle cx="210" cy="450" r="1.5" fill="url(#dotGradient)" opacity="1"/>
  <circle cx="240" cy="450" r="1.5" fill="url(#dotGradient)" opacity="1"/>
  <circle cx="270" cy="450" r="1.5" fill="url(#dotGradient)" opacity="1"/>
  <circle cx="300" cy="450" r="1.5" fill="url(#dotGradient)" opacity="1"/>
  <circle cx="330" cy="450" r="1.5" fill="url(#dotGradient)" opacity="1"/>
  <circle cx="360" cy="450" r="1.5" fill="url(#dotGradient)" opacity="1"/>
  <circle cx="390" cy="450" r="1.5" fill="url(#dotGradient)" opacity="1"/>
  <circle cx="420" cy="450" r="1.5" fill="url(#dotGradient)" opacity="1"/>
  <circle cx="450" cy="450" r="1.5" fill="url(#dotGradient)" opacity="1"/>
  <circle cx="480" cy="450" r="1.5" fill="url(#dotGradient)" opacity="1"/>
  <circle cx="510" cy="450" r="1.5" fill="url(#dotGradient)" opacity="1"/>
  <circle cx="540" cy="450" r="1.5" fill="url(#dotGradient)" opacity="1"/>
  <circle cx="570" cy="450" r="1.5" fill="url(#dotGradient)" opacity="1"/>
  <circle cx="0" cy="480" r="1.5" fill="url(#dotGradient)" opacity="1"/>
  <circle cx="30" cy="480" r="1.5" fill="url(#dotGradient)" opacity="1"/>
  <circle cx="60" cy="480" r="1.5" fill="url(#dotGradient)" opacity="1"/>
  <circle cx="90" cy="480" r="1.5" fill="url(#dotGradient)" opacity="1"/>
  <circle cx="120" cy="480" r="1.5" fill="url(#dotGradient)" opacity="1"/>
  <circle cx="150" cy="480" r="1.5" fill="url(#dotGradient)" opacity="1"/>
  <circle cx="180" cy="480" r="1.5" fill="url(#dotGradient)" opacity="1"/>
  <circle cx="210" cy="480" r="1.5" fill="url(#dotGradient)" opacity="1"/>
  <circle cx="240" cy="480" r="1.5" fill="url(#dotGradient)" opacity="1"/>
  <circle cx="270" cy="480" r="1.5" fill="url(#dotGradient)" opacity="1"/>
  <circle cx="300" cy="480" r="1.5" fill="url(#dotGradient)" opacity="1"/>
  <circle cx="330" cy="480" r="1.5" fill="url(#dotGradient)" opacity="1"/>
  <circle cx="360" cy="480" r="1.5" fill="url(#dotGradient)" opacity="1"/>
  <circle cx="390" cy="480" r="1.5" fill="url(#dotGradient)" opacity="1"/>
  <circle cx="420" cy="480" r="1.5" fill="url(#dotGradient)" opacity="1"/>
  <circle cx="450" cy="480" r="1.5" fill="url(#dotGradient)" opacity="1"/>
  <circle cx="480" cy="480" r="1.5" fill="url(#dotGradient)" opacity="1"/>
  <circle cx="510" cy="480" r="1.5" fill="url(#dotGradient)" opacity="1"/>
  <circle cx="540" cy="480" r="1.5" fill="url(#dotGradient)" opacity="1"/>
  <circle cx="570" cy="480" r="1.5" fill="url(#dotGradient)" opacity="1"/>
</svg>